<?xml version="1.0" encoding="utf-8"?>
<!-- Generator: Adobe Illustrator 26.5.1, SVG Export Plug-In . SVG Version: 6.00 Build 0)  -->
<svg version="1.1" id="Ebene_1" xmlns="http://www.w3.org/2000/svg" xmlns:xlink="http://www.w3.org/1999/xlink" x="0px" y="0px"
	 viewBox="0 0 64.1 64.1" style="enable-background:new 0 0 64.1 64.1;" xml:space="preserve">
<style type="text/css">
	.st0{fill-rule:evenodd;clip-rule:evenodd;fill:#FFFFFF;}
</style>
<path id="Icon_Socials_Twitter" class="st0" d="M32,0C14.3,0,0,14.3,0,32.1c0,17.7,14.3,32,32.1,32c17.7,0,32-14.3,32-32
	C64.1,14.4,49.8,0,32,0C32.1,0,32.1,0,32,0z M49.8,25.2c0,0.4,0,0.7,0,1.1c0,11.2-8.6,24.2-24.2,24.2c-4.6,0-9.2-1.3-13-3.8
	c0.7,0.1,1.4,0.1,2,0.1c3.8,0,7.6-1.3,10.6-3.6c-3.6-0.1-6.8-2.4-8-5.9c1.3,0.2,2.6,0.2,3.8-0.1c-4-0.8-6.8-4.3-6.8-8.3
	c0,0,0-0.1,0-0.1c1.2,0.7,2.5,1,3.9,1.1c-3.7-2.5-4.9-7.5-2.6-11.4c4.3,5.3,10.7,8.5,17.5,8.9c-1.1-4.6,1.8-9.2,6.4-10.2
	c3-0.7,6.1,0.3,8.1,2.5c1.9-0.4,3.7-1.1,5.4-2.1c-0.6,2-2,3.6-3.7,4.7c1.7-0.2,3.3-0.7,4.9-1.3C52.9,22.5,51.4,24,49.8,25.2z"/>
</svg>
