<?xml version="1.0" encoding="utf-8"?>
<!-- Generator: Adobe Illustrator 27.0.0, SVG Export Plug-In . SVG Version: 6.00 Build 0)  -->
<svg version="1.1" id="Ebene_1" xmlns="http://www.w3.org/2000/svg" xmlns:xlink="http://www.w3.org/1999/xlink" x="0px" y="0px"
	 viewBox="0 0 65 65" style="enable-background:new 0 0 65 65;" xml:space="preserve">
<style type="text/css">
	.st0{fill:#FFFFFF;}
</style>
<g id="Icons_Socials_X" transform="translate(-0.016 0.139)">
	<circle id="Ellipse_12" class="st0" cx="32.5" cy="32.4" r="32.5"/>
	<path d="M20.6,19.2c4.8,3.6,10,10.9,11.9,14.9c1.9-3.9,7.1-11.3,11.9-14.9c3.5-2.6,9.1-4.6,9.1,1.8c0,1.3-0.7,10.8-1.2,12.3
		c-1.5,5.4-7,6.7-11.8,5.9c8.5,1.4,10.6,6.2,6,11c-8.9,9.1-12.7-2.3-13.7-5.2c-0.2-0.5-0.3-0.8-0.3-0.6c0-0.2-0.1,0-0.3,0.6
		c-1,2.9-4.9,14.3-13.7,5.2c-4.7-4.8-2.5-9.6,6-11c-4.9,0.8-10.3-0.5-11.8-5.9c-0.4-1.5-1.2-11-1.2-12.3
		C11.5,14.6,17.2,16.6,20.6,19.2L20.6,19.2z"/>
</g>
</svg>
