<svg id="Icon_Socials_Instagram" xmlns="http://www.w3.org/2000/svg" width="64.1" height="64.1" viewBox="0 0 64.1 64.1">
  <g id="Group_619" data-name="Group 619">
    <path id="Path_741" data-name="Path 741" d="M563.8,207.946A32.05,32.05,0,1,0,595.847,240,32.05,32.05,0,0,0,563.8,207.946Zm20.058,40.37a14.814,14.814,0,0,1-.938,4.9,10.319,10.319,0,0,1-5.9,5.9,14.817,14.817,0,0,1-4.9.938c-2.152.1-2.839.122-8.32.122s-6.168-.023-8.32-.122a14.817,14.817,0,0,1-4.9-.938,10.319,10.319,0,0,1-5.9-5.9,14.81,14.81,0,0,1-.938-4.9c-.1-2.152-.121-2.84-.121-8.32s.023-6.168.121-8.32a14.808,14.808,0,0,1,.938-4.9,10.319,10.319,0,0,1,5.9-5.9,14.805,14.805,0,0,1,4.9-.938c2.152-.1,2.839-.122,8.32-.122s6.167.023,8.32.122a14.805,14.805,0,0,1,4.9.938,10.319,10.319,0,0,1,5.9,5.9,14.812,14.812,0,0,1,.938,4.9c.1,2.152.122,2.84.122,8.32S583.953,246.164,583.855,248.316Z" transform="translate(-531.747 -207.946)"/>
  </g>
  <g id="Group_620" data-name="Group 620" transform="translate(15.506 15.506)">
    <path id="Path_742" data-name="Path 742" d="M597.374,248.993a11.164,11.164,0,0,0-.695-3.747,6.681,6.681,0,0,0-3.83-3.83,11.164,11.164,0,0,0-3.747-.7c-2.128-.1-2.766-.117-8.154-.117s-6.027.02-8.154.117a11.165,11.165,0,0,0-3.747.7,6.681,6.681,0,0,0-3.83,3.83,11.165,11.165,0,0,0-.695,3.747c-.1,2.128-.118,2.766-.118,8.154s.021,6.026.118,8.154a11.164,11.164,0,0,0,.695,3.747,6.681,6.681,0,0,0,3.83,3.83,11.169,11.169,0,0,0,3.747.695c2.128.1,2.766.118,8.154.118s6.026-.02,8.154-.118a11.168,11.168,0,0,0,3.747-.695,6.681,6.681,0,0,0,3.83-3.83,11.165,11.165,0,0,0,.695-3.747c.1-2.128.118-2.766.118-8.154S597.471,251.121,597.374,248.993ZM580.948,267.51a10.362,10.362,0,1,1,10.362-10.362A10.362,10.362,0,0,1,580.948,267.51Zm11.13-18.832a2.422,2.422,0,1,1,2.422-2.422A2.421,2.421,0,0,1,592.078,248.678Z" transform="translate(-564.404 -240.604)"/>
    <circle id="Ellipse_107" data-name="Ellipse 107" cx="6.727" cy="6.727" r="6.727" transform="translate(9.817 9.817)"/>
  </g>
</svg>
