<svg xmlns="http://www.w3.org/2000/svg" width="65" height="65" viewBox="0 0 65 65">
  <g id="Icon_Socials_Threads" transform="translate(0.15 0.139)">
    <circle id="Ellipse_8" data-name="Ellipse 8" cx="32.5" cy="32.5" r="32.5" transform="translate(-0.15 -0.139)" fill="#fff"/>
    <rect id="Rechteck_46" data-name="Rechteck 46" width="35" height="41" transform="translate(14.85 11.861)"/>
    <path id="Pfad_1514" data-name="Pfad 1514" d="M45.811,51.195a3.686,3.686,0,0,0-2.536,1.332,2.646,2.646,0,0,0-.443,2.085c.125.748.357,2.142,4.025,2.142,3.512,0,4.48-3.531,4.748-5.469A15.552,15.552,0,0,0,48.572,51a20.8,20.8,0,0,0-2.762.191" transform="translate(-13.81 -17.919)" fill="#fff"/>
    <path id="Pfad_1515" data-name="Pfad 1515" d="M49.083,10.348a11.093,11.093,0,0,0-9.065-9.06,85.99,85.99,0,0,0-29.666,0,11.125,11.125,0,0,0-9.059,9.065,85.693,85.693,0,0,0,0,29.662,11.1,11.1,0,0,0,9.067,9.069,86.338,86.338,0,0,0,14.87,1.291,85.862,85.862,0,0,0,14.788-1.291,10.931,10.931,0,0,0,9.068-9.069,85.93,85.93,0,0,0,1.291-14.789,86.316,86.316,0,0,0-1.294-14.879M40.228,20.356a1.689,1.689,0,0,1-2.131-1.12c-2.009-6.464-5.761-9.1-12.948-9.1-8.727,0-12.792,5.048-12.792,15.884,0,9.148,4.489,14.066,12.982,14.219a12.1,12.1,0,0,0,8.882-3.032,6.7,6.7,0,0,0,2.137-4.85A5.77,5.77,0,0,0,34.434,27.8a6.548,6.548,0,0,0-.811-.6c-.892,4.757-3.875,7.65-8,7.65-5.415,0-7.005-2.713-7.385-4.986a6.017,6.017,0,0,1,1.062-4.67,7.04,7.04,0,0,1,4.827-2.686,22.222,22.222,0,0,1,6.124-.019,5.176,5.176,0,0,0-1.768-3.031,5.475,5.475,0,0,0-7.3,1.186,1.7,1.7,0,0,1-2.694-2.086,8.88,8.88,0,0,1,12.021-1.836,9.134,9.134,0,0,1,3.324,6.757,10.608,10.608,0,0,1,2.841,1.76,9.16,9.16,0,0,1,3.084,7.115A10.168,10.168,0,0,1,36.6,39.64a15.564,15.564,0,0,1-10.91,4.009c-.142,0-.281,0-.42-.006C14.9,43.458,8.95,37.034,8.95,26.018c0-12.8,5.45-19.29,16.2-19.29,8.732,0,13.729,3.545,16.2,11.5a1.7,1.7,0,0,1-1.121,2.13" transform="translate(7.421 7.391)" fill="#fff"/>
    <rect id="Rechteck_44" data-name="Rechteck 44" width="45" height="45" transform="translate(9.85 9.861)" fill="none"/>
  </g>
</svg>
