<?xml version="1.0" encoding="utf-8"?>
<!-- Generator: Adobe Illustrator 26.5.1, SVG Export Plug-In . SVG Version: 6.00 Build 0)  -->
<svg version="1.1" id="Ebene_1" xmlns="http://www.w3.org/2000/svg" xmlns:xlink="http://www.w3.org/1999/xlink" x="0px" y="0px"
	 viewBox="0 0 64.1 64.1" style="enable-background:new 0 0 64.1 64.1;" xml:space="preserve">
<style type="text/css">
	.st0{fill:#FFFFFF;}
</style>
<path id="Icon_Socials_Tiktok" class="st0" d="M32.1,0C14.3,0,0,14.3,0,32.1s14.3,32.1,32,32.1c17.7,0,32.1-14.3,32.1-32
	c0,0,0,0,0,0C64.1,14.3,49.8,0,32.1,0z M49.7,28.4c-1.2,0-2.4-0.1-3.5-0.4c-2-0.5-3.9-1.3-5.6-2.4c-0.1-0.1-0.2-0.2-0.3-0.1
	c-0.1,0.1-0.1,0.2-0.1,0.3c0,4.6,0,9.2,0,13.8c0,6.7-5,12.3-11.6,13.1c-2.6,0.3-5.2-0.1-7.5-1.3c-0.4-0.2-0.7-0.4-1.1-0.7l-0.3-0.3
	l0,0c-0.2-0.1-0.5-0.3-0.7-0.5c-3.4-2.7-5.3-6.8-5-11.1c0.3-5.2,3.7-9.6,8.6-11.4c1.1-0.4,2.3-0.7,3.5-0.7c0.9-0.1,1.7,0,2.6,0.1
	c0.1,0,0.2,0,0.2,0.2c0,0.5,0,1,0,1.4c0,0,0.1,3.6,0.1,5.3c0,0.1,0,0.1,0,0.2c0,0.2-0.1,0.2-0.2,0.2c-0.5-0.1-0.9-0.2-1.4-0.2
	c-0.7,0-1.4,0.1-2.1,0.3c-3.1,1-4.7,4.4-3.7,7.5c0.4,1.2,1.2,2.3,2.3,3c0.2,0.1,0.3,0.2,0.5,0.4l0.1,0.1c0.5,0.2,0.9,0.4,1.4,0.5
	c3.2,0.7,6.4-1.4,7.1-4.6c0.1-0.4,0.1-0.9,0.1-1.4c0-9.2,0-18.5,0-27.7c0-0.4-0.1-0.4,0.4-0.4c2.1,0,4.3,0,6.4,0h0.2
	c0.2,0,0.2,0,0.2,0.2c0,0.6,0.1,1.2,0.2,1.7c0.9,4.7,6.4,7.5,8,7.8c0.5,0.1,0.9,0.1,1.4,0.1c0.2,0,0.2,0,0.2,0.2
	c0,0.4,0.1,4.9,0.1,6.5C50.1,28.4,50,28.4,49.7,28.4z"/>
</svg>
