<?xml version="1.0" encoding="UTF-8"?><svg id="Ebene_1" xmlns="http://www.w3.org/2000/svg" viewBox="0 0 65 65"><defs><style>.cls-1{fill:#fff;}</style></defs><g id="Icons_Socials_X"><circle id="Ellipse_12" class="cls-1" cx="32.5" cy="32.5" r="32.5"/><path d="M20.62,16.52c4.81,3.61,9.98,10.93,11.88,14.86,1.9-3.93,7.07-11.25,11.88-14.86,3.47-2.61,9.09-4.62,9.09,1.79,0,1.28-.73,10.76-1.17,12.3-1.5,5.35-6.95,6.72-11.81,5.89,8.49,1.44,10.64,6.23,5.98,11.01-8.85,9.08-12.72-2.28-13.72-5.19-.18-.53-.27-.78-.27-.57,0-.21-.09,.04-.27,.57-.99,2.91-4.86,14.28-13.72,5.19-4.66-4.78-2.5-9.57,5.98-11.01-4.85,.83-10.31-.54-11.81-5.89-.43-1.54-1.17-11.02-1.17-12.3,0-6.42,5.62-4.4,9.09-1.79h0Z"/></g></svg>