<svg xmlns="http://www.w3.org/2000/svg" width="64.1" height="64.1" viewBox="0 0 64.1 64.1">
  <path id="Icon_Socials_Twitter" d="M1012.88,207.946A32.05,32.05,0,1,0,1044.93,240,32.05,32.05,0,0,0,1012.88,207.946Zm17.714,25.194q.025.547.024,1.1c0,11.245-8.56,24.214-24.214,24.214a24.092,24.092,0,0,1-13.046-3.823,17.277,17.277,0,0,0,2.03.118,17.075,17.075,0,0,0,10.57-3.643,8.52,8.52,0,0,1-7.95-5.911,8.5,8.5,0,0,0,3.843-.146,8.514,8.514,0,0,1-6.827-8.343c0-.037,0-.073,0-.109a8.447,8.447,0,0,0,3.855,1.065,8.516,8.516,0,0,1-2.634-11.361,24.163,24.163,0,0,0,17.542,8.891,8.516,8.516,0,0,1,14.5-7.761,17.061,17.061,0,0,0,5.4-2.066,8.542,8.542,0,0,1-3.743,4.708,16.984,16.984,0,0,0,4.887-1.339A17.327,17.327,0,0,1,1030.594,233.14Z" transform="translate(-980.83 -207.946)" fill-rule="evenodd"/>
</svg>
