<svg xmlns="http://www.w3.org/2000/svg" width="64.1" height="64.1" viewBox="0 0 64.1 64.1">
  <path id="Icon_Socials_Tiktok" d="M340.385,404.964a32.05,32.05,0,1,0,32.05,32.05A32.05,32.05,0,0,0,340.385,404.964ZM358,433.345a15.7,15.7,0,0,1-3.534-.425,16.928,16.928,0,0,1-5.553-2.393c-.089-.058-.184-.184-.279-.141-.121.055-.057.211-.057.321,0,4.6.017,9.194-.009,13.791a13.15,13.15,0,0,1-11.627,13.066,13.014,13.014,0,0,1-7.484-1.323,6.855,6.855,0,0,1-1.091-.667l-.323-.287h0a3.088,3.088,0,0,1-.678-.468,13.059,13.059,0,0,1-4.995-11.136,13.049,13.049,0,0,1,8.6-11.405,12.987,12.987,0,0,1,3.473-.736,13.467,13.467,0,0,1,2.581.058c.116.014.184.037.182.175-.009.477-.009.954-.012,1.431.009.008.07,3.628.07,5.285,0,.058,0,.117,0,.176-.008.166-.093.222-.25.177a6.245,6.245,0,0,0-1.387-.213,5.29,5.29,0,0,0-2.122.315,5.89,5.89,0,0,0-1.329,10.5c.165.114.335.221.489.35l.111.1a8.034,8.034,0,0,0,1.4.462,5.948,5.948,0,0,0,7.2-5.922q0-13.846,0-27.692c0-.431-.06-.377.368-.377q3.193,0,6.385,0h.151c.218,0,.221,0,.22.225a14.225,14.225,0,0,0,.221,1.743c.921,4.667,6.36,7.521,8.037,7.774a8.79,8.79,0,0,0,1.4.122c.195,0,.2.005.2.191,0,.433.085,4.9.083,6.529C358.426,433.325,358.377,433.344,358,433.345Z" transform="translate(-308.335 -404.964)"/>
</svg>
