<svg xmlns="http://www.w3.org/2000/svg" xmlns:xlink="http://www.w3.org/1999/xlink" width="64" height="64" viewBox="0 0 64 64">
  <defs>
    <clipPath id="clip-path">
      <rect id="Rechteck_42" data-name="Rechteck 42" width="43.294" height="33.099" fill="none"/>
    </clipPath>
  </defs>
  <g id="Icon_Socials_Discord" transform="translate(-19181 -4479.19)">
    <circle id="Ellipse_8" data-name="Ellipse 8" cx="32" cy="32" r="32" transform="translate(19181 4479.19)" fill="#fff"/>
    <g id="Gruppe_262" data-name="Gruppe 262" transform="translate(19191.49 4494.536)">
      <g id="Gruppe_261" data-name="Gruppe 261" transform="translate(0 0)" clip-path="url(#clip-path)">
        <path id="Pfad_1507" data-name="Pfad 1507" d="M6.755,13.443a5.17,5.17,0,0,0,4.836,5.436,5.17,5.17,0,0,0,4.819-5.436A5.187,5.187,0,0,0,11.591,7.99a5.185,5.185,0,0,0-4.836,5.453m6.32,0c0,1.134-.684,2.1-1.484,2.1s-1.5-.967-1.5-2.1.684-2.118,1.5-2.118,1.484.967,1.484,2.118" transform="translate(4.504 5.334)"/>
        <path id="Pfad_1508" data-name="Pfad 1508" d="M18.144,7.99a5.187,5.187,0,0,0-4.819,5.453,5.17,5.17,0,0,0,4.819,5.436,5.17,5.17,0,0,0,4.836-5.436A5.186,5.186,0,0,0,18.144,7.99m0,7.554c-.8,0-1.484-.967-1.484-2.1s.684-2.118,1.484-2.118,1.5.967,1.5,2.118-.684,2.1-1.5,2.1" transform="translate(8.889 5.334)"/>
        <path id="Pfad_1509" data-name="Pfad 1509" d="M39.289,7.3l-.117-.15V6.986A20.262,20.262,0,0,0,27.834.066a1.667,1.667,0,0,0-.925,3.2,1.145,1.145,0,0,0,.125.032,16.985,16.985,0,0,1,9.421,5.653,41.468,41.468,0,0,1,3.452,16.358,16.677,16.677,0,0,1-8.337,4.2v-.85a22.459,22.459,0,0,0,5.719-3.252A1.673,1.673,0,0,0,35.2,22.794a21.4,21.4,0,0,1-13.64,4.335A21.389,21.389,0,0,1,8.041,22.794a1.673,1.673,0,1,0-2.084,2.618,22.256,22.256,0,0,0,5.686,3.252v.85a16.677,16.677,0,0,1-8.337-4.2A41.455,41.455,0,0,1,6.79,8.954,16.985,16.985,0,0,1,16.211,3.3a1.667,1.667,0,0,0-.8-3.235A20.262,20.262,0,0,0,4.072,6.986v.167l-.117.15C.72,13.973.353,20.059,0,25.879a1.668,1.668,0,0,0,.484,1.284A20.015,20.015,0,0,0,13.226,33.1a1.68,1.68,0,0,0,1.667-1.667V29.764a29.259,29.259,0,0,0,13.34,0v1.667A1.68,1.68,0,0,0,29.9,33.1a20.011,20.011,0,0,0,12.906-5.853,1.668,1.668,0,0,0,.484-1.284c-.4-5.9-.767-11.922-4-18.659" transform="translate(0 0.001)"/>
        <path id="Pfad_1510" data-name="Pfad 1510" d="M30.5,7.476a1.668,1.668,0,0,0-.712-2.248l-.005,0a25.779,25.779,0,0,0-11.772-2.5,25.779,25.779,0,0,0-11.772,2.5,1.67,1.67,0,0,0-.72,2.246l0,.005a1.666,1.666,0,0,0,2.251.7A22.572,22.572,0,0,1,18.007,6.059,22.572,22.572,0,0,1,28.245,8.176a1.642,1.642,0,0,0,2.251-.7" transform="translate(3.557 1.813)"/>
      </g>
    </g>
  </g>
</svg>
