<svg xmlns="http://www.w3.org/2000/svg" xmlns:xlink="http://www.w3.org/1999/xlink" width="64" height="64" viewBox="0 0 64 64">
  <defs>
    <clipPath id="clip-path">
      <rect id="Rechteck_41" data-name="Rechteck 41" width="52.76" height="30.481" fill="none"/>
    </clipPath>
  </defs>
  <g id="Icon_Steam" transform="translate(-18605 -4479)">
    <circle id="Ellipse_8" data-name="Ellipse 8" cx="32" cy="32" r="32" transform="translate(18605 4479)" fill="#fff"/>
    <g id="Gruppe_259" data-name="Gruppe 259" transform="translate(18610.67 4495.754)">
      <g id="Gruppe_258" data-name="Gruppe 258" clip-path="url(#clip-path)">
        <path id="Pfad_1506" data-name="Pfad 1506" d="M48.812,8.65a4.884,4.884,0,0,1-9.765,0,4.884,4.884,0,0,1,9.765,0m-1.967,8.062-5.913,4.942a7.529,7.529,0,0,1,.107,1.207,7.812,7.812,0,0,1-15.394,1.684L11.031,19.7a6.946,6.946,0,0,1-4.152,1.372A6.8,6.8,0,0,1,0,14.347,6.8,6.8,0,0,1,6.879,7.625a6.846,6.846,0,0,1,6.7,5.208L27.7,17.515a7.856,7.856,0,0,1,5.373-2.263L35.183,8.97c-.006-.125-.019-.248-.019-.374a8.8,8.8,0,0,1,17.6,0A8.611,8.611,0,0,1,46.845,16.713ZM11.2,12.046A4.832,4.832,0,0,0,6.993,9.621a4.708,4.708,0,1,0,0,9.414A4.907,4.907,0,0,0,8.4,18.829L6.116,18.07a3.659,3.659,0,0,1-1.55-5.011,3.833,3.833,0,0,1,5.126-1.514ZM37.1,8.617a6.835,6.835,0,0,0,13.667,0,6.835,6.835,0,0,0-13.667,0m.135,14.9a5.144,5.144,0,0,0-5.2-5.084,5.349,5.349,0,0,0-1.168.133l2.907.964a3.659,3.659,0,0,1,1.548,5.01,3.83,3.83,0,0,1-5.126,1.515l-3.133-1.039a5.219,5.219,0,0,0,10.174-1.5Z" transform="translate(0)" fill-rule="evenodd"/>
      </g>
    </g>
  </g>
</svg>
