<?xml version="1.0" encoding="utf-8"?>
<!-- Generator: Adobe Illustrator 26.5.1, SVG Export Plug-In . SVG Version: 6.00 Build 0)  -->
<svg version="1.1" id="Icon_Socials_Instagram" xmlns="http://www.w3.org/2000/svg" xmlns:xlink="http://www.w3.org/1999/xlink"
	 x="0px" y="0px" viewBox="0 0 64.1 64.1" style="enable-background:new 0 0 64.1 64.1;" xml:space="preserve">
<style type="text/css">
	.st0{fill:#FFFFFF;}
</style>
<g id="Group_619">
	<path id="Path_741" class="st0" d="M32.1,0C14.4,0,0,14.3,0,32c0,17.7,14.3,32.1,32,32.1c17.7,0,32.1-14.3,32.1-32
		C64.1,14.4,49.8,0,32.1,0C32.1,0,32.1,0,32.1,0z M52.1,40.4c0,1.7-0.4,3.3-0.9,4.9c-1,2.7-3.2,4.9-5.9,5.9
		c-1.6,0.6-3.2,0.9-4.9,0.9c-2.2,0.1-2.8,0.1-8.3,0.1s-6.2,0-8.3-0.1c-1.7,0-3.3-0.4-4.9-0.9c-2.7-1-4.9-3.2-5.9-5.9
		C12.3,43.7,12,42,12,40.4c-0.1-2.2-0.1-2.8-0.1-8.3s0-6.2,0.1-8.3c0-1.7,0.4-3.3,0.9-4.9c1-2.7,3.2-4.9,5.9-5.9
		c1.6-0.6,3.2-0.9,4.9-0.9c2.2-0.1,2.8-0.1,8.3-0.1s6.2,0,8.3,0.1c1.7,0,3.3,0.4,4.9,0.9c2.7,1,4.9,3.2,5.9,5.9
		c0.6,1.6,0.9,3.2,0.9,4.9c0.1,2.2,0.1,2.8,0.1,8.3S52.2,38.2,52.1,40.4L52.1,40.4z"/>
</g>
<g id="Group_620" transform="translate(15.506 15.506)">
	<path id="Path_742" class="st0" d="M33,8.4c0-1.3-0.3-2.5-0.7-3.7c-0.7-1.8-2.1-3.2-3.8-3.8c-1.2-0.4-2.5-0.7-3.7-0.7
		C22.6,0,21.9,0,16.5,0s-6,0-8.2,0.1c-1.3,0-2.5,0.3-3.7,0.7C2.9,1.5,1.5,2.9,0.8,4.6C0.4,5.8,0.1,7.1,0.1,8.4C0,10.5,0,11.2,0,16.5
		s0,6,0.1,8.2c0,1.3,0.3,2.5,0.7,3.7c0.7,1.8,2.1,3.2,3.8,3.8C5.8,32.7,7.1,33,8.4,33c2.1,0.1,2.8,0.1,8.2,0.1s6,0,8.2-0.1
		c1.3,0,2.5-0.3,3.7-0.7c1.8-0.7,3.2-2.1,3.8-3.8c0.4-1.2,0.7-2.5,0.7-3.7c0.1-2.1,0.1-2.8,0.1-8.2S33.1,10.5,33,8.4z M16.5,26.9
		c-5.7,0-10.4-4.6-10.4-10.4S10.8,6.2,16.5,6.2s10.4,4.6,10.4,10.4l0,0C26.9,22.3,22.3,26.9,16.5,26.9z M27.7,8.1
		c-1.3,0-2.4-1.1-2.4-2.4s1.1-2.4,2.4-2.4s2.4,1.1,2.4,2.4l0,0C30.1,7,29,8.1,27.7,8.1C27.7,8.1,27.7,8.1,27.7,8.1L27.7,8.1z"/>
	<circle id="Ellipse_107" class="st0" cx="16.5" cy="16.5" r="6.7"/>
</g>
</svg>
